<svg width="246" height="55" viewBox="0 0 246 55" fill="none" xmlns="http://www.w3.org/2000/svg">
<path d="M0.681274 8.69539H18.9083V3.69192H0.681274V8.69539ZM32.4399 50.4507H38.039L26.4237 5.12146H20.8841L32.4399 50.4507ZM42.0024 53.9651H70.0574V48.8425H42.0024V53.9651ZM87.2397 54.2032L91.35 50.0936C85.0955 45.1494 80.5689 37.8229 80.5689 27.4585C80.5689 17.0941 85.0955 9.82717 91.35 4.82364L87.2397 0.713654C80.2111 5.95542 74.5525 14.9497 74.5525 27.4585C74.5525 39.9672 80.2111 48.9616 87.2397 54.2032ZM119.532 2.67932L114.946 4.22798C116.435 7.32543 119.83 16.5581 120.782 19.9533L125.429 18.345C124.416 15.0093 120.842 5.53847 119.532 2.67932ZM145.979 6.49148L140.499 4.94282C139.308 13.8776 135.674 23.4081 130.968 29.4241C124.952 37.0485 116.077 42.7668 107.559 45.2685L111.669 49.4381C120.068 46.4599 128.884 40.3246 135.019 32.2237C139.903 25.7907 143.119 17.2728 144.906 9.88669C145.145 8.93369 145.562 7.50408 145.979 6.49148ZM102.913 6.25325L98.2073 7.98062C99.6372 10.5419 103.747 20.6085 104.879 24.3016L109.584 22.5741C108.214 18.7024 104.462 9.58887 102.913 6.25325ZM156.998 54.2032C164.087 48.9616 169.686 39.9672 169.686 27.4585C169.686 14.9497 164.087 5.95542 156.998 0.713654L152.888 4.82364C159.203 9.82717 163.67 17.0941 163.67 27.4585C163.67 37.8229 159.203 45.1494 152.888 50.0936L156.998 54.2032ZM174.161 53.9651H202.216V48.8425H174.161V53.9651ZM206.294 50.4507H211.893L223.27 5.12146H217.79L206.294 50.4507ZM227.653 8.69539H245.88V3.69192H227.653V8.69539Z" fill="#7C7786"/>
</svg>
