<svg width="228" height="40" viewBox="0 0 228 40" fill="none" xmlns="http://www.w3.org/2000/svg">
<path d="M196.834 35.5158C196.875 37.9608 198.919 39.873 201.299 39.873H223.38C225.76 39.873 227.814 37.9608 227.845 35.5158C227.886 33.0394 225.933 31.0123 223.532 31.0123H201.136C198.736 31.0123 196.793 33.029 196.834 35.5158Z" fill="#5E49FF"/>
<path d="M192.476 31.0117C194.921 30.971 196.833 28.9267 196.833 26.5467L196.833 4.46566C196.833 2.08567 194.921 0.0311505 192.476 0.000638765C190 -0.0400449 187.973 1.91277 187.973 4.3131L187.973 26.7094C187.973 29.1097 189.989 31.0524 192.476 31.0117Z" fill="#25CBD3"/>
<path d="M209.165 24.2071L206.606 26.7654C205.109 28.2624 202.684 28.2624 201.187 26.7654C199.69 25.2683 199.69 22.8428 201.187 21.3457L203.745 18.7875C205.242 17.2905 207.668 17.2904 209.165 18.7875C210.662 20.2845 210.662 22.7101 209.165 24.2071Z" fill="#3BD42D"/>
<path d="M15.6772 10.9854V20.384C14.1953 19.136 12.3234 18.473 10.1005 18.473C4.1338 18.473 0 23.0748 0 29.2365C0 35.3982 4.28979 40 10.2565 40C12.7134 40 14.7023 39.181 16.1842 37.7381V39.493H22.1899V10.9854H15.6772ZM11.1925 34.2673C8.42359 34.2673 6.47368 32.1614 6.47368 29.2365C6.47368 26.3117 8.46259 24.1668 11.1925 24.1668C14.0393 24.1668 15.9502 26.2337 15.9502 29.2365C15.9502 32.2004 14.0393 34.2673 11.1925 34.2673Z" fill="#333333"/>
<path d="M30.091 31.1474H44.9883C45.0663 30.6015 45.1443 29.8215 45.1443 28.8075C45.1443 23.7378 41.1665 18.434 34.4588 18.434C28.5311 18.434 23.7733 23.3088 23.7733 29.2365C23.7733 35.3592 28.0631 40 34.8488 40C39.9575 40 42.5314 37.9331 44.1693 35.7882L39.2945 32.5514C38.4756 33.9163 37.3446 34.6963 35.0438 34.6963C32.5869 34.6963 30.754 33.4483 30.091 31.1474ZM30.013 27.0916C30.559 24.5958 32.2359 23.3088 34.6148 23.3088C36.9937 23.3088 38.5536 24.7517 39.0996 27.0916H30.013Z" fill="#333333"/>
<path d="M59.4288 18.941L55.022 33.0973L50.6543 18.941H43.9466L51.2392 39.493H58.8439L66.1365 18.941H59.4288Z" fill="#333333"/>
<path d="M81.2257 18.941V21.0859C79.7828 19.643 77.8329 18.863 75.298 18.863C69.3313 18.863 65.0415 23.0748 65.0415 29.2365C65.0415 35.3982 69.3313 40 75.298 40C77.8329 40 79.7828 39.142 81.2257 37.6211V39.493H87.2314V18.941H81.2257ZM76.234 34.2673C73.4651 34.2673 71.5152 32.1614 71.5152 29.2365C71.5152 26.3117 73.5041 24.1668 76.234 24.1668C79.0808 24.1668 80.9917 26.2337 80.9917 29.2365C80.9917 32.2004 79.0808 34.2673 76.234 34.2673Z" fill="#333333"/>
<path d="M114.125 18.434C110.966 18.434 108.782 19.526 107.573 21.1249C106.442 19.37 104.531 18.434 101.567 18.434C99.1103 18.434 97.1604 19.331 95.8735 20.6179V18.941H89.7508V39.454H96.2635V27.4426C96.2635 25.9217 97.2384 24.2058 99.5003 24.2058C101.606 24.2058 102.581 25.9607 102.581 27.9106V39.454H109.094V27.4426C109.094 25.9607 110.069 24.2058 112.331 24.2058C114.437 24.2058 115.412 25.9607 115.412 27.9106V39.454H121.924V26.6627C121.924 22.1779 119.311 18.434 114.125 18.434Z" fill="#333333"/>
<path d="M129.685 31.1474H144.583C144.661 30.6015 144.739 29.8215 144.739 28.8075C144.739 23.7378 140.761 18.434 134.053 18.434C128.126 18.434 123.368 23.3088 123.368 29.2365C123.368 35.3592 127.658 40 134.443 40C139.552 40 142.126 37.9331 143.764 35.7882L138.889 32.5514C138.07 33.9163 136.939 34.6963 134.638 34.6963C132.181 34.6963 130.348 33.4483 129.685 31.1474ZM129.607 27.0916C130.153 24.5958 131.83 23.3088 134.209 23.3088C136.588 23.3088 138.148 24.7517 138.694 27.0916H129.607Z" fill="#333333"/>
<path d="M151.709 31.1474H166.606C166.684 30.6015 166.762 29.8215 166.762 28.8075C166.762 23.7378 162.784 18.434 156.076 18.434C150.149 18.434 145.391 23.3088 145.391 29.2365C145.391 35.3592 149.681 40 156.466 40C161.575 40 164.149 37.9331 165.787 35.7882L160.912 32.5514C160.093 33.9163 158.962 34.6963 156.661 34.6963C154.205 34.6963 152.372 33.4483 151.709 31.1474ZM151.631 27.0916C152.177 24.5958 153.854 23.3088 156.232 23.3088C158.611 23.3088 160.171 24.7517 160.717 27.0916H151.631Z" fill="#333333"/>
<path d="M177.953 39.493H181.463V33.8383H179.318C177.485 33.8383 176.432 32.7854 176.432 30.7965V24.4788H181.346V18.941H176.666V13.4813H170.348V16.6401C170.348 18.1611 169.607 18.941 168.164 18.941H166.526V24.4788H169.958V31.5764C169.958 36.3342 172.649 39.493 177.953 39.493Z" fill="#333333"/>
</svg>
