<svg width="360" height="531" viewBox="0 0 360 531" fill="none" xmlns="http://www.w3.org/2000/svg">
<path d="M153.54 416.074L153.54 416.074C161.513 432.71 154.801 454.453 139.614 464.683L-1.86489 559.99C-17.051 570.22 -36.4807 566.087 -44.9075 549.756C-53.4767 533.138 -47.8225 511.174 -32.5132 500.861L110.986 404.194C126.296 393.881 145.525 399.177 153.54 416.074Z" stroke="#25CBD3" stroke-width="0.3"/>
<path d="M43.023 395.09C27.0616 405.839 7.46086 401.17 -0.702533 384.678C-8.86602 368.186 -2.59698 346.097 13.4293 335.305L164.167 233.798C180.128 223.049 199.729 227.718 207.892 244.21C216.055 260.702 209.722 282.835 193.76 293.583L43.023 395.09Z" stroke="#25CBD3" stroke-width="0.3"/>
<path d="M158.969 -88.4685L-55.7448 55.868C-71.0863 66.181 -90.2046 61.0482 -98.4614 44.3969C-106.718 27.7455 -100.977 5.9015 -85.6352 -4.41154L129.078 -148.748C144.42 -159.061 163.538 -153.928 171.795 -137.278C179.987 -120.582 174.31 -98.7812 158.969 -88.4685Z" stroke="#25CBD3" stroke-width="0.3"/>
<path d="M142.662 58.1028L-72.0512 202.439C-87.3928 212.752 -106.511 207.62 -114.768 190.968C-123.024 174.317 -117.283 152.473 -101.942 142.16L112.772 -2.17664C128.114 -12.4896 147.231 -7.35701 155.488 9.29388C163.681 25.9895 157.939 47.8336 142.662 58.1028Z" stroke="#25CBD3" stroke-width="0.3"/>
<path d="M302.783 86.652L88.0697 230.989C72.7281 241.302 53.61 236.169 45.3532 219.517C37.0964 202.866 42.8377 181.022 58.1793 170.709L272.893 26.3725C288.235 16.0595 307.353 21.1922 315.609 37.8436C323.866 54.4949 318.125 76.339 302.783 86.652Z" stroke="#25CBD3" stroke-width="0.3"/>
<path d="M249.096 -11.3519L222.441 6.69757C206.912 17.2126 187.561 11.9797 179.203 -4.99905C170.845 -21.9778 176.657 -44.2503 192.185 -54.7654L218.84 -72.8149C234.368 -83.33 253.72 -78.0971 262.078 -61.1184C270.436 -44.1396 264.624 -21.867 249.096 -11.3519Z" stroke="#25CBD3" stroke-width="0.3"/>
<path d="M311.23 217.242L272.798 243.253C257.298 253.743 237.981 248.522 229.639 231.583C221.296 214.645 227.097 192.424 242.597 181.934L281.029 155.923C296.529 145.433 315.846 150.653 324.189 167.592C332.466 184.576 326.73 206.752 311.23 217.242Z" stroke="#25CBD3" stroke-width="0.3"/>
<path d="M295.618 362.246L217.833 414.791C202.398 425.218 183.162 420.028 174.855 403.193C166.547 386.357 172.324 364.272 187.759 353.845L265.545 301.3C280.98 290.873 300.215 296.062 308.523 312.898C316.83 329.734 311.054 351.819 295.618 362.246Z" stroke="#25CBD3" stroke-width="0.3"/>
</svg>
