<svg width="24" height="24" viewBox="0 0 24 24" fill="none" xmlns="http://www.w3.org/2000/svg">
<g clip-path="url(#clip0_214_4126)">
<path d="M11.1851 0.00359621L11.3051 0.0239962L21.5051 2.424C21.6821 2.46541 21.8424 2.55946 21.965 2.69377C22.0875 2.82807 22.1665 2.99633 22.1915 3.1764L22.1999 3.3V20.7C22.2 20.8818 22.145 21.0594 22.0421 21.2093C21.9393 21.3593 21.7935 21.4746 21.6239 21.54L21.5063 21.576L11.3063 23.976C11.1842 24.0048 11.0575 24.0077 10.9343 23.9846C10.8111 23.9616 10.694 23.913 10.5906 23.842C10.4873 23.7711 10.3998 23.6793 10.334 23.5726C10.2682 23.4659 10.2253 23.3466 10.2083 23.2224L10.1999 23.1V0.899997C10.1997 0.666811 10.2901 0.442669 10.4519 0.274787C10.6138 0.106905 10.8344 0.00839084 11.0675 -3.8147e-06L11.1851 0.00359621ZM11.9999 2.0364V21.9636L20.3999 19.9872V4.0128L11.9999 2.0364ZM8.99988 2.4V4.2H4.79988V19.8H8.99988V21.6H3.89988C3.68239 21.6 3.47227 21.5212 3.30836 21.3783C3.14446 21.2353 3.03786 21.0379 3.00828 20.8224L2.99988 20.7V3.3C2.99989 3.08251 3.07865 2.87239 3.2216 2.70848C3.36455 2.54458 3.56201 2.43798 3.77748 2.4084L3.89988 2.4H8.99988ZM14.9999 10.8C15.3181 10.8 15.6234 10.9264 15.8484 11.1515C16.0735 11.3765 16.1999 11.6817 16.1999 12C16.1999 12.3183 16.0735 12.6235 15.8484 12.8485C15.6234 13.0736 15.3181 13.2 14.9999 13.2C14.6816 13.2 14.3764 13.0736 14.1514 12.8485C13.9263 12.6235 13.7999 12.3183 13.7999 12C13.7999 11.6817 13.9263 11.3765 14.1514 11.1515C14.3764 10.9264 14.6816 10.8 14.9999 10.8Z" fill="#4D4C4D" stroke="#4D4C4D" stroke-width="0.25"/>
</g>
<defs>
<clipPath id="clip0_214_4126">
<rect width="24" height="24" fill="white"/>
</clipPath>
</defs>
</svg>
