<svg width="32" height="32" viewBox="0 0 32 32" fill="none" xmlns="http://www.w3.org/2000/svg">
<circle cx="16" cy="16" r="15.25" fill="#41181D" fill-opacity="0.75" stroke="#FF3049" stroke-width="1.5"/>
<g clip-path="url(#clip0_136_481)">
<path d="M8.66675 8.66666L23.3334 23.3333" stroke="#FF3049" stroke-width="1.5" stroke-linecap="round" stroke-linejoin="round"/>
<path d="M14.0001 14V16C14.0005 16.3953 14.118 16.7816 14.3377 17.1102C14.5575 17.4388 14.8698 17.6949 15.235 17.8461C15.6002 17.9973 16.0021 18.0369 16.3898 17.9599C16.7775 17.8829 17.1338 17.6927 17.4135 17.4133M18.0001 14.2267V10.6667C18.0006 10.1707 17.8168 9.6922 17.4844 9.32412C17.1519 8.95604 16.6946 8.72462 16.2011 8.67477C15.7077 8.62493 15.2133 8.76022 14.8139 9.05438C14.4146 9.34855 14.1388 9.7806 14.0401 10.2667" stroke="#FF3049" stroke-width="1.5" stroke-linecap="round" stroke-linejoin="round"/>
<path d="M19.3335 19.3C18.6827 19.9643 17.8483 20.419 16.9372 20.6057C16.0262 20.7925 15.0802 20.7028 14.2205 20.3482C13.3608 19.9936 12.6267 19.3902 12.1123 18.6154C11.5979 17.8407 11.3267 16.9299 11.3335 16V14.6667M20.6668 14.6667V16C20.6666 16.2749 20.6421 16.5494 20.5935 16.82" stroke="#FF3049" stroke-width="1.5" stroke-linecap="round" stroke-linejoin="round"/>
<path d="M16.0001 20.6667V23.3333" stroke="#FF3049" stroke-width="1.5" stroke-linecap="round" stroke-linejoin="round"/>
<path d="M13.3335 23.3333H18.6668" stroke="#FF3049" stroke-width="1.5" stroke-linecap="round" stroke-linejoin="round"/>
</g>
<defs>
<clipPath id="clip0_136_481">
<rect width="16" height="16" fill="white" transform="translate(8.00012 8)"/>
</clipPath>
</defs>
</svg>
