<svg width="32" height="32" viewBox="0 0 32 32" fill="none" xmlns="http://www.w3.org/2000/svg">
<circle cx="16" cy="16" r="15.25" fill="white" fill-opacity="0.5" stroke="white" stroke-width="1.5"/>
<g clip-path="url(#clip0_130_213)">
<path d="M16.0001 8.66667C15.4697 8.66667 14.961 8.87739 14.5859 9.25246C14.2108 9.62753 14.0001 10.1362 14.0001 10.6667V16C14.0001 16.5304 14.2108 17.0391 14.5859 17.4142C14.961 17.7893 15.4697 18 16.0001 18C16.5306 18 17.0393 17.7893 17.4143 17.4142C17.7894 17.0391 18.0001 16.5304 18.0001 16V10.6667C18.0001 10.1362 17.7894 9.62753 17.4143 9.25246C17.0393 8.87739 16.5306 8.66667 16.0001 8.66667V8.66667Z" stroke="white" stroke-width="1.5" stroke-linecap="round" stroke-linejoin="round"/>
<path d="M20.6668 14.6667V16C20.6668 17.2377 20.1752 18.4247 19.3 19.2998C18.4248 20.175 17.2378 20.6667 16.0002 20.6667C14.7625 20.6667 13.5755 20.175 12.7003 19.2998C11.8252 18.4247 11.3335 17.2377 11.3335 16V14.6667" stroke="white" stroke-width="1.5" stroke-linecap="round" stroke-linejoin="round"/>
<path d="M16.0001 20.6667V23.3333" stroke="white" stroke-width="1.5" stroke-linecap="round" stroke-linejoin="round"/>
<path d="M13.3335 23.3333H18.6668" stroke="white" stroke-width="1.5" stroke-linecap="round" stroke-linejoin="round"/>
</g>
<defs>
<clipPath id="clip0_130_213">
<rect width="16" height="16" fill="white" transform="translate(8.00012 8)"/>
</clipPath>
</defs>
</svg>
